<?xml version="1.0" standalone="no"?>
<!DOCTYPE svg PUBLIC "-//W3C//DTD SVG 20010904//EN"
 "http://www.w3.org/TR/2001/REC-SVG-20010904/DTD/svg10.dtd">
<svg version="1.0" xmlns="http://www.w3.org/2000/svg"
 width="3256.000000pt" height="1416.000000pt" viewBox="0 0 3256.000000 1416.000000"
 preserveAspectRatio="xMidYMid meet">
<metadata>
Created by potrace 1.16, written by Peter Selinger 2001-2019
</metadata>
<g transform="translate(0.000000,1416.000000) scale(0.100000,-0.100000)"
fill="#00afef" stroke="none">
<path d="M1418 12283 c-60 -27 -80 -58 -78 -120 0 -26 3 -2206 5 -4843 2
-2637 6 -4838 7 -4890 2 -52 -1 -228 -6 -392 l-9 -296 24 -24 c23 -23 34 -25
163 -31 234 -12 9311 -8 9341 3 17 6 33 26 45 53 19 43 19 141 20 4948 0 2697
3 4992 6 5099 10 319 -11 450 -81 496 -20 13 -591 15 -4706 17 l-4684 2 -47
-22z m8830 -559 l113 -6 17 -32 c16 -29 17 -301 20 -4681 1 -3304 -1 -4658 -9
-4676 -13 -33 -38 -45 -113 -59 -41 -7 -1379 -10 -4186 -10 -3722 0 -4128 2
-4148 16 -12 8 -29 29 -38 46 -15 28 -16 435 -15 4670 1 3833 4 4645 15 4671
25 61 29 62 270 67 321 7 7940 2 8074 -6z"/>
<path d="M9562 11281 c-40 -10 -82 -27 -93 -37 -22 -20 -84 -142 -93 -184 -10
-49 11 -147 45 -203 25 -43 47 -63 98 -93 64 -38 69 -39 156 -39 103 1 125 10
196 76 40 37 49 53 60 104 22 102 17 171 -18 245 -38 81 -66 108 -134 125 -95
23 -140 25 -217 6z"/>
<path d="M8527 11281 c-29 -6 -56 -26 -108 -77 -91 -90 -102 -115 -97 -218 3
-75 6 -86 39 -131 19 -28 61 -70 93 -95 54 -42 62 -45 130 -48 99 -5 140 8
218 73 55 46 71 66 88 113 43 112 21 211 -65 299 -29 29 -68 60 -87 67 -42 18
-161 27 -211 17z"/>
<path d="M5775 10055 c-27 -9 -113 -25 -190 -35 -129 -18 -196 -30 -360 -64
-56 -12 -153 -46 -235 -82 -19 -9 -69 -22 -111 -29 -44 -8 -94 -24 -116 -38
-21 -13 -58 -31 -83 -41 -25 -9 -61 -28 -80 -41 -19 -13 -65 -33 -101 -45 -37
-11 -72 -27 -79 -35 -6 -8 -37 -24 -68 -35 -32 -12 -74 -34 -94 -51 -20 -16
-48 -33 -61 -38 -38 -15 -164 -99 -170 -114 -3 -7 -34 -28 -70 -45 -36 -17
-80 -47 -99 -67 -78 -86 -195 -191 -257 -232 -60 -39 -132 -108 -159 -152 -18
-28 -57 -76 -155 -189 -32 -37 -70 -87 -84 -112 -15 -25 -41 -61 -58 -80 -37
-40 -125 -168 -125 -181 0 -5 -28 -51 -63 -102 -91 -134 -171 -301 -256 -537
-15 -41 -32 -84 -38 -95 -6 -11 -18 -48 -27 -81 -9 -34 -27 -86 -41 -116 -14
-31 -29 -89 -35 -134 -5 -43 -14 -124 -21 -179 -6 -55 -19 -138 -30 -185 -53
-246 -50 -837 6 -1061 8 -30 23 -137 35 -237 11 -100 29 -210 40 -244 10 -35
22 -82 26 -106 4 -26 16 -51 31 -65 33 -31 52 -68 63 -129 19 -96 225 -522
287 -591 11 -12 39 -57 63 -101 23 -43 62 -101 86 -128 24 -27 44 -53 44 -58
0 -5 36 -45 79 -88 51 -52 81 -91 86 -111 5 -22 28 -48 86 -96 44 -36 90 -83
103 -104 28 -43 127 -133 204 -183 28 -19 66 -54 82 -77 30 -41 111 -101 137
-101 7 0 38 -22 68 -50 30 -27 60 -50 66 -50 6 0 28 -13 48 -29 20 -16 60 -38
88 -49 28 -11 66 -31 84 -44 19 -14 51 -31 71 -37 20 -7 53 -25 72 -40 19 -16
50 -34 68 -41 18 -8 45 -22 60 -32 15 -10 51 -27 81 -37 29 -10 72 -28 94 -40
23 -11 97 -33 165 -47 69 -15 148 -39 180 -55 32 -16 64 -29 72 -29 9 0 50
-11 93 -25 55 -18 136 -31 270 -45 105 -11 211 -24 235 -30 70 -17 501 -25
583 -10 135 23 191 30 335 40 121 8 162 15 250 43 58 19 132 40 165 47 33 7
81 23 108 36 26 14 86 34 134 45 48 11 112 33 142 49 31 15 75 31 99 35 26 4
57 19 76 35 18 16 45 32 60 36 15 3 48 21 74 39 26 17 61 36 77 42 17 6 54 27
84 47 29 20 58 36 64 36 5 0 26 12 46 28 19 15 56 41 82 57 108 70 138 91 210
154 43 36 94 76 115 89 53 31 190 164 240 232 23 31 68 73 100 96 32 22 65 53
73 69 21 46 81 137 110 167 87 90 128 147 195 269 13 25 32 52 42 60 9 8 30
41 46 74 15 33 51 98 79 145 29 47 64 117 79 155 15 39 39 97 52 130 14 33 27
77 31 98 3 21 20 59 36 84 23 35 31 58 31 92 0 25 12 78 26 116 14 39 36 113
49 165 12 52 35 136 50 185 34 112 45 282 45 675 0 330 -10 461 -45 600 -15
58 -33 137 -41 177 -7 40 -26 114 -42 165 -17 51 -33 120 -37 153 -9 73 -64
221 -104 278 -16 24 -34 63 -41 87 -16 63 -31 101 -52 132 -10 15 -27 52 -37
82 -11 29 -35 77 -55 106 -20 29 -36 58 -36 66 0 7 -13 28 -28 46 -15 18 -40
51 -55 73 -37 54 -102 142 -159 214 -25 32 -51 69 -58 81 -7 12 -52 67 -101
122 -49 54 -98 117 -109 139 -15 28 -41 53 -92 85 -39 25 -103 78 -142 118
-39 40 -96 88 -126 108 -30 20 -64 46 -75 58 -11 12 -42 38 -70 56 -98 67
-120 83 -151 108 -18 15 -49 33 -70 42 -21 9 -56 31 -77 49 -22 19 -53 37 -71
41 -17 3 -45 17 -62 30 -18 13 -54 28 -80 34 -36 8 -58 21 -84 49 -26 28 -47
40 -78 46 -23 4 -68 19 -100 35 -31 15 -86 33 -122 40 -36 7 -95 25 -132 41
-37 15 -92 32 -122 38 -30 6 -73 19 -95 30 -52 27 -194 57 -306 66 -49 3 -144
15 -210 26 -169 28 -656 37 -730 14z m865 -418 c52 -14 123 -31 157 -37 34 -6
110 -26 170 -44 59 -19 128 -37 153 -41 47 -8 243 -86 321 -128 24 -14 76 -35
114 -47 44 -14 98 -42 145 -76 41 -30 92 -60 113 -66 22 -6 53 -27 70 -46 42
-44 132 -106 179 -121 20 -7 76 -46 125 -87 123 -104 428 -406 447 -442 8 -16
31 -49 50 -73 72 -91 98 -125 127 -169 16 -25 51 -76 79 -115 27 -38 57 -92
66 -120 9 -27 29 -70 44 -95 15 -25 30 -57 34 -72 3 -15 22 -43 41 -64 19 -20
40 -55 46 -78 6 -23 20 -63 31 -91 11 -27 30 -84 42 -125 12 -41 34 -104 48
-140 14 -36 31 -98 37 -138 6 -41 18 -90 27 -110 20 -46 29 -106 49 -302 8
-85 20 -200 27 -255 15 -117 13 -201 -7 -420 -28 -294 -35 -340 -60 -415 -14
-41 -33 -117 -41 -170 -9 -52 -26 -122 -39 -155 -12 -33 -25 -82 -29 -109 -6
-38 -16 -57 -46 -86 -31 -30 -39 -46 -45 -91 -6 -51 -42 -124 -112 -230 -13
-20 -32 -63 -42 -95 -25 -82 -41 -110 -104 -180 -30 -33 -62 -77 -71 -98 -8
-20 -42 -65 -74 -99 -33 -34 -66 -76 -75 -92 -8 -17 -75 -91 -147 -165 -73
-74 -144 -152 -158 -174 -17 -24 -44 -47 -76 -62 -28 -13 -78 -46 -111 -74
-33 -27 -87 -64 -120 -81 -33 -17 -91 -55 -130 -85 -38 -29 -91 -62 -118 -73
-26 -11 -70 -43 -97 -70 -38 -38 -59 -51 -92 -56 -55 -10 -128 -38 -175 -69
-63 -41 -229 -105 -301 -116 -37 -6 -107 -22 -157 -36 -49 -14 -132 -34 -183
-44 -51 -10 -125 -28 -165 -39 -152 -42 -305 -49 -677 -31 -153 7 -220 15
-388 49 -111 23 -219 48 -240 56 -20 8 -82 24 -137 35 -55 12 -134 37 -175 55
-98 44 -188 81 -275 111 -38 14 -81 36 -95 49 -14 13 -46 33 -71 44 -26 10
-50 25 -54 31 -4 7 -33 23 -64 37 -31 14 -60 31 -64 39 -4 8 -27 24 -50 35
-23 12 -59 37 -80 55 -20 19 -45 34 -54 34 -9 0 -37 22 -62 48 -49 52 -113 98
-174 127 -21 10 -48 31 -60 47 -12 17 -57 66 -99 109 -42 43 -92 102 -111 132
-19 30 -61 83 -94 118 -32 35 -65 74 -73 85 -8 12 -40 53 -70 90 -31 38 -80
116 -109 174 -29 58 -64 120 -78 139 -14 18 -35 56 -45 85 -11 28 -31 66 -45
84 -14 19 -34 61 -44 94 -10 33 -27 70 -38 82 -25 27 -41 69 -41 109 0 18 -12
57 -26 87 -14 30 -37 105 -50 165 -13 61 -35 148 -49 195 -23 73 -28 123 -42
359 -15 254 -15 295 1 565 19 336 28 412 55 458 11 18 25 62 31 98 6 36 24 97
39 135 15 39 36 102 45 140 10 39 26 84 36 100 11 17 24 53 30 80 6 27 29 76
50 108 22 33 40 68 40 78 0 30 27 87 60 127 16 20 30 42 30 49 0 6 11 24 24
40 13 15 36 53 51 83 26 52 40 72 111 158 17 20 44 57 60 82 70 103 86 125
122 159 20 20 44 45 53 56 10 11 35 35 58 53 23 19 52 55 65 80 29 56 68 96
116 116 19 8 67 44 105 81 39 37 93 77 120 90 55 25 170 99 180 115 4 6 30 22
58 36 29 15 61 34 72 44 11 10 45 28 76 39 31 12 64 30 73 40 10 11 45 29 79
42 34 12 78 33 97 46 19 12 98 43 174 67 76 25 143 50 150 55 23 19 181 59
311 79 33 5 98 19 145 30 160 39 180 40 570 37 377 -2 387 -3 480 -28z"/>
<path d="M5835 9351 c-39 -4 -76 -10 -83 -15 -7 -4 -63 -20 -125 -36 -63 -16
-140 -38 -173 -49 -57 -21 -180 -52 -254 -65 -20 -3 -56 -23 -82 -44 -45 -37
-115 -68 -208 -92 -46 -12 -163 -76 -214 -118 -16 -13 -50 -34 -75 -46 -69
-35 -161 -91 -209 -128 -79 -62 -147 -119 -172 -147 -14 -15 -52 -52 -85 -81
-58 -51 -84 -80 -160 -181 -19 -26 -48 -52 -65 -59 -36 -15 -51 -37 -83 -127
-25 -70 -82 -164 -138 -230 -15 -17 -30 -50 -34 -72 -5 -29 -18 -51 -46 -79
-30 -29 -44 -53 -55 -98 -9 -32 -22 -69 -30 -81 -7 -12 -22 -53 -33 -91 -10
-38 -27 -84 -37 -103 -22 -44 -81 -208 -100 -279 -7 -30 -23 -120 -34 -200
-11 -80 -27 -181 -36 -225 -28 -143 -9 -672 31 -855 8 -36 17 -92 20 -125 12
-122 16 -135 55 -174 27 -27 40 -49 45 -82 4 -24 12 -52 17 -62 30 -57 38 69
12 180 -14 56 -17 133 -18 453 -1 287 2 394 12 421 7 19 23 105 37 190 16 108
34 180 56 235 17 43 38 104 46 134 8 30 24 70 35 89 12 18 27 58 34 88 7 30
28 78 47 106 59 90 104 171 117 210 11 36 90 137 156 202 103 99 200 182 265
224 41 27 92 65 115 85 22 19 53 40 68 46 16 6 41 19 57 30 15 11 47 27 70 35
24 9 64 29 90 46 25 16 86 42 135 58 49 16 112 38 139 49 28 11 82 25 120 31
323 52 394 53 631 13 128 -22 182 -36 215 -55 24 -14 69 -32 99 -40 30 -8 77
-28 104 -46 28 -17 57 -31 66 -31 9 0 39 -12 66 -26 27 -14 70 -32 96 -40 34
-10 57 -27 83 -58 20 -25 49 -49 66 -55 40 -14 93 -54 160 -120 30 -31 87 -73
125 -94 48 -26 87 -58 123 -100 30 -34 64 -69 76 -77 21 -14 80 -75 308 -323
45 -49 102 -110 127 -136 25 -25 63 -69 85 -98 22 -28 51 -59 65 -68 23 -17
80 -80 135 -151 14 -18 55 -45 97 -65 72 -33 75 -34 203 -33 159 0 164 2 399
102 62 26 190 164 275 297 31 48 46 91 76 210 33 133 38 164 37 267 -1 99 -5
125 -25 175 -14 32 -27 81 -31 109 -10 77 -103 255 -191 364 -20 25 -46 61
-58 79 -12 19 -45 53 -73 75 -28 23 -61 60 -74 84 -25 46 -61 81 -161 154 -35
26 -89 68 -119 93 -82 67 -188 141 -252 175 -31 16 -79 52 -106 79 -36 36 -60
51 -88 56 -22 3 -52 9 -68 12 -29 5 -206 92 -257 126 -14 10 -61 24 -103 32
-42 8 -98 24 -124 35 -26 10 -130 41 -232 67 l-185 47 -365 2 c-201 1 -397 -1
-435 -5z"/>
<path d="M8847 6474 c-3 -4 -4 -70 -1 -148 5 -118 1 -186 -25 -416 -30 -271
-39 -315 -79 -415 -12 -27 -34 -93 -51 -145 -58 -186 -132 -351 -181 -405 -10
-11 -28 -42 -40 -70 -12 -27 -46 -83 -77 -123 -30 -41 -61 -90 -70 -110 -9
-24 -78 -98 -194 -212 -255 -249 -260 -253 -383 -325 -36 -22 -57 -42 -71 -73
-30 -60 -39 -67 -145 -97 -54 -15 -123 -43 -160 -65 -91 -55 -171 -88 -249
-105 -36 -7 -86 -25 -111 -39 -25 -14 -85 -36 -133 -50 -49 -14 -92 -28 -97
-31 -66 -41 -485 -68 -845 -55 -322 12 -424 23 -511 56 -93 35 -118 42 -193
55 -35 5 -77 17 -94 26 -17 8 -60 24 -95 34 -57 16 -202 91 -243 126 -8 7 -49
21 -90 31 -92 23 -99 27 -189 100 -39 33 -90 65 -111 71 -27 8 -87 54 -189
143 -83 72 -150 134 -150 139 0 4 -13 15 -29 26 -16 10 -47 42 -70 71 -23 28
-59 64 -81 78 -33 22 -43 37 -57 83 -13 46 -27 67 -79 116 -66 63 -192 248
-237 348 -15 32 -36 71 -47 87 -11 16 -27 48 -36 72 -8 24 -26 52 -40 63 -22
17 -27 33 -35 105 -7 55 -16 89 -26 97 -57 44 -74 -94 -24 -190 16 -31 34 -87
41 -128 7 -41 21 -90 32 -109 11 -19 29 -59 39 -89 11 -30 30 -69 44 -87 14
-18 34 -54 45 -78 10 -25 45 -85 76 -133 31 -47 69 -114 84 -147 18 -39 48
-81 84 -116 32 -30 71 -81 89 -114 17 -32 48 -72 69 -89 21 -17 56 -54 78 -83
22 -29 61 -67 87 -85 27 -18 78 -61 115 -96 36 -34 73 -63 82 -63 8 0 43 -24
77 -52 98 -84 159 -127 232 -164 38 -20 87 -48 109 -65 23 -16 46 -29 51 -29
6 0 77 -36 157 -79 116 -63 161 -82 216 -92 38 -6 101 -24 139 -39 39 -15 96
-33 129 -40 32 -6 84 -21 115 -32 116 -40 277 -52 706 -51 484 0 523 6 790
115 28 11 75 27 105 34 30 8 87 24 125 35 79 24 420 196 478 241 20 16 62 40
91 53 35 15 68 40 93 70 21 26 64 62 97 82 89 55 291 262 370 381 37 56 77
109 90 119 12 10 28 29 35 42 7 12 27 39 45 59 55 63 179 302 205 396 5 21 21
55 35 75 24 35 40 84 51 163 3 22 20 54 40 78 28 34 35 50 35 86 0 24 11 88
25 141 46 176 59 690 21 833 -38 144 -49 176 -65 193 -9 10 -20 15 -24 11z"/>
<path d="M13598 11221 l-518 -6 -22 -23 c-22 -22 -23 -29 -23 -192 0 -160 1
-171 21 -191 21 -20 32 -21 290 -25 414 -7 442 -14 464 -117 7 -35 10 -318 10
-892 -1 -462 1 -847 5 -856 11 -29 53 -38 203 -45 162 -8 213 1 235 39 9 17
12 213 14 861 0 461 4 863 8 893 4 35 15 63 30 81 l23 27 325 6 c283 5 328 7
351 22 35 23 38 41 34 217 l-3 152 -28 24 -28 24 -387 0 c-213 0 -409 2 -437
4 -27 2 -283 1 -567 -3z"/>
<path d="M15583 11221 c-127 -9 -165 -21 -184 -59 -15 -29 -21 -533 -17 -1397
2 -231 3 -516 3 -634 l0 -214 27 -20 c25 -19 42 -21 201 -21 189 -1 217 6 237
60 6 15 8 190 5 445 l-4 419 25 17 c26 17 35 17 1026 13 10 0 25 -12 35 -26
15 -23 17 -69 18 -443 1 -229 5 -427 9 -439 4 -12 15 -26 25 -31 30 -17 289
-25 352 -12 103 22 93 -87 91 1044 -2 1105 -5 1215 -33 1251 -27 34 -94 46
-255 46 -128 0 -136 -1 -158 -23 -32 -32 -38 -130 -35 -534 l3 -325 -24 -20
c-25 -20 -35 -20 -530 -15 -504 5 -504 5 -522 27 -16 20 -18 46 -19 224 0 110
-4 294 -8 408 -6 208 -6 208 -33 234 -31 32 -68 36 -235 25z"/>
<path d="M18730 11227 c-3 -3 -171 -7 -375 -9 -379 -5 -403 -7 -421 -45 -9
-20 -18 -2190 -9 -2240 3 -19 15 -38 28 -45 33 -19 1606 -19 1660 0 54 19 61
40 59 172 -3 170 -18 226 -64 251 -23 12 -269 14 -314 3 -12 -3 -41 0 -65 8
-33 10 -130 13 -379 13 -462 0 -441 -13 -434 269 3 93 9 177 15 187 5 10 26
23 47 28 20 6 220 12 445 13 364 4 409 6 424 21 20 19 26 129 16 300 -9 165
41 150 -469 152 -236 0 -437 5 -447 9 -35 16 -38 39 -26 218 6 95 14 183 19
195 5 12 24 30 42 39 30 16 79 17 533 16 275 -1 522 1 549 5 36 4 58 13 78 33
28 28 28 29 28 165 0 163 -11 198 -66 221 -31 13 -108 17 -453 21 -229 2 -418
2 -421 0z"/>
<path d="M16632 8246 c-16 -14 -44 -53 -62 -88 -18 -35 -43 -76 -55 -93 -12
-16 -32 -59 -43 -95 -34 -107 -58 -171 -95 -250 -19 -41 -45 -109 -57 -150
-12 -41 -35 -93 -50 -115 -15 -22 -33 -66 -39 -97 -7 -31 -20 -67 -30 -80 -31
-40 -42 -67 -52 -131 -6 -34 -18 -76 -28 -93 -10 -16 -28 -60 -40 -96 -12 -36
-32 -80 -46 -98 -13 -18 -31 -63 -40 -101 -8 -38 -26 -93 -40 -122 -14 -28
-29 -71 -35 -94 -6 -23 -26 -60 -45 -83 -19 -23 -35 -43 -35 -44 0 -35 -29
-133 -50 -171 -16 -27 -36 -81 -44 -118 -9 -37 -25 -80 -37 -96 -28 -38 -23
-82 13 -99 30 -14 377 -22 414 -9 30 11 82 88 101 149 21 73 45 116 92 167
l41 44 343 -4 c188 -2 397 -2 465 -1 l124 3 49 -32 c52 -33 79 -71 79 -112 0
-13 9 -49 19 -79 50 -145 61 -151 290 -146 231 4 259 22 212 129 -11 25 -24
79 -29 122 -7 50 -19 92 -35 119 -14 24 -30 63 -37 88 -7 25 -27 61 -45 81
-24 27 -36 53 -44 96 -6 32 -24 85 -40 118 -16 33 -31 74 -35 91 -4 17 -22 55
-41 84 -19 29 -39 78 -46 109 -6 31 -22 74 -34 96 -13 22 -29 63 -36 90 -6 28
-27 75 -45 105 -18 30 -37 79 -43 109 -6 30 -23 75 -36 100 -14 25 -35 78 -48
116 -14 39 -33 93 -45 120 -28 68 -109 285 -117 312 -3 12 -18 39 -32 60 -14
21 -34 62 -42 92 -26 87 -39 92 -248 107 -98 7 -186 13 -195 13 -9 1 -30 -10
-46 -23z m267 -766 c28 -35 43 -67 52 -107 6 -32 26 -85 44 -118 18 -33 37
-82 44 -108 6 -27 23 -66 37 -87 15 -23 31 -69 40 -116 25 -143 27 -161 14
-169 -35 -21 -139 -32 -305 -31 -163 1 -182 3 -206 21 -26 19 -26 23 -23 108
3 49 9 98 15 109 6 11 19 63 30 116 11 53 26 107 33 121 23 42 97 182 125 236
48 93 47 93 100 25z"/>
<path d="M24365 8262 c-2 -2 -202 -6 -444 -8 -473 -4 -495 -6 -522 -56 -10
-18 -12 -226 -11 -973 2 -994 6 -1211 24 -1258 6 -16 23 -33 37 -39 37 -15
842 -23 1001 -10 69 6 141 18 161 26 20 8 75 25 123 37 48 12 104 33 124 47
20 14 50 29 67 35 16 6 47 25 67 43 21 19 53 40 72 48 19 8 40 25 46 38 7 12
27 39 46 58 18 19 41 53 50 75 9 22 29 58 45 80 15 22 38 75 49 118 12 43 28
93 35 110 26 62 46 203 55 377 8 176 8 185 -30 458 -5 40 -19 90 -29 111 -11
21 -26 69 -32 107 -11 59 -18 74 -50 104 -20 19 -44 52 -53 73 -18 44 -70 114
-101 137 -11 8 -31 26 -45 41 -14 15 -44 38 -67 52 -23 15 -44 31 -47 36 -4 5
-36 19 -72 31 -36 12 -84 33 -108 46 -25 14 -73 28 -117 34 -95 13 -269 27
-274 22z m147 -499 c106 -10 108 -11 164 -54 66 -51 98 -91 118 -145 7 -22 25
-57 40 -78 15 -22 29 -51 33 -65 3 -14 19 -75 36 -135 26 -97 29 -120 24 -205
-10 -186 -94 -426 -191 -544 -30 -37 -47 -48 -88 -58 -28 -6 -77 -22 -109 -35
-106 -43 -300 -58 -524 -39 -49 4 -98 12 -107 17 -47 24 -47 27 -48 688 -2
692 -7 646 67 661 49 9 447 4 585 -8z"/>
<path d="M29672 8256 c-47 -12 -62 -24 -157 -130 -42 -47 -71 -91 -85 -128
-11 -31 -28 -62 -37 -69 -9 -8 -26 -30 -38 -49 -12 -19 -57 -70 -99 -113 -42
-43 -76 -83 -76 -89 0 -15 -79 -131 -96 -141 -21 -12 -111 77 -126 124 -6 21
-42 75 -79 119 -38 45 -72 92 -75 105 -3 12 -19 36 -35 51 -17 16 -38 47 -48
70 -10 22 -32 50 -48 62 -16 11 -51 53 -77 91 -57 85 -61 87 -269 95 -117 4
-161 2 -210 -10 -34 -9 -65 -21 -68 -27 -11 -17 11 -64 53 -112 27 -31 46 -67
60 -110 16 -54 30 -77 83 -133 125 -131 186 -207 218 -269 8 -15 27 -39 42
-53 15 -14 35 -41 45 -61 11 -20 30 -43 44 -53 14 -9 37 -38 51 -65 13 -27 29
-52 34 -55 17 -11 99 -141 120 -189 29 -66 46 -445 31 -684 -5 -93 -6 -191 -1
-220 4 -28 6 -88 3 -132 -9 -155 13 -171 237 -171 161 0 193 6 212 42 11 19
20 564 19 1116 0 13 26 52 66 98 38 44 70 91 76 112 12 43 78 134 120 163 16
11 37 38 48 60 11 21 30 45 41 52 11 6 29 29 40 50 24 45 97 143 132 176 14
13 29 36 32 52 3 15 17 38 29 51 13 13 35 42 51 66 15 23 31 42 36 42 5 0 18
19 30 42 12 24 35 59 51 79 23 29 29 45 26 75 -5 59 -39 71 -218 76 -88 3
-162 1 -188 -6z"/>
<path d="M13786 8250 c-16 -5 -40 -19 -53 -32 -24 -22 -25 -26 -17 -98 8 -77
12 -1476 5 -1810 -3 -188 5 -331 21 -362 4 -10 25 -21 46 -27 59 -14 1582 -7
1610 8 35 19 39 44 32 211 -6 164 -13 189 -58 210 -16 7 -153 10 -426 9 -503
-1 -720 8 -747 30 -20 16 -20 30 -20 881 0 504 -4 880 -9 901 -6 19 -21 46
-36 60 -24 23 -32 24 -172 26 -81 1 -160 -2 -176 -7z"/>
<path d="M18405 8254 c-50 -13 -74 -28 -85 -53 -13 -34 -6 -1500 8 -1603 7
-44 18 -78 34 -100 14 -18 30 -47 37 -65 7 -17 21 -39 32 -49 10 -9 30 -41 43
-70 13 -29 33 -57 45 -63 11 -6 28 -25 38 -42 10 -17 38 -41 63 -54 25 -13 54
-33 65 -45 11 -13 36 -30 55 -39 19 -9 55 -28 80 -43 25 -15 74 -34 110 -43
36 -9 81 -22 101 -30 19 -7 77 -21 128 -30 130 -24 391 -17 471 12 30 11 92
34 137 50 45 16 96 42 113 57 18 15 46 34 64 43 112 58 277 225 298 302 6 20
25 53 43 73 24 25 36 51 41 85 7 46 11 1248 4 1423 -2 47 0 117 4 156 7 66 6
73 -16 98 l-23 27 -180 1 c-252 2 -251 3 -248 -218 2 -79 7 -163 13 -187 6
-29 6 -56 -1 -80 -6 -22 -11 -221 -13 -480 -3 -402 -5 -452 -24 -549 -32 -164
-71 -228 -154 -253 -28 -8 -81 -27 -117 -42 -63 -26 -73 -28 -241 -28 -169 0
-177 1 -232 27 -31 14 -82 34 -115 43 -69 20 -88 35 -104 84 -6 20 -19 47 -29
61 -26 39 -30 54 -44 199 -11 100 -14 298 -14 748 0 412 -4 618 -11 631 -6 11
-25 25 -43 32 -33 12 -296 23 -333 14z"/>
<path d="M22523 8246 c-38 -18 -50 -38 -59 -103 -3 -27 -7 -308 -9 -624 -1
-316 -5 -586 -9 -601 -15 -49 -48 -45 -112 16 -19 17 -87 83 -152 146 -65 63
-149 145 -188 181 -38 36 -127 127 -199 203 -71 75 -138 139 -148 142 -9 3
-24 20 -33 37 -22 44 -82 105 -124 127 -19 10 -73 60 -120 111 -47 50 -105
113 -130 138 -25 26 -66 69 -92 96 -26 28 -70 69 -98 93 -47 38 -57 42 -105
42 -43 0 -60 -5 -82 -24 l-28 -24 -3 -239 c-2 -131 -3 -256 -3 -278 0 -22 1
-339 0 -705 0 -366 3 -743 7 -838 9 -236 -4 -222 217 -229 93 -3 178 -2 191 1
50 12 50 19 51 636 1 542 7 711 25 741 13 19 50 -10 175 -135 61 -60 137 -129
169 -153 36 -27 75 -68 100 -106 23 -34 57 -71 76 -83 19 -12 45 -33 58 -46
13 -12 51 -51 85 -85 33 -35 64 -63 68 -63 3 0 12 -13 19 -30 13 -32 87 -106
135 -134 17 -10 46 -40 65 -67 19 -27 51 -60 70 -73 37 -25 190 -173 281 -271
75 -81 132 -125 173 -132 48 -8 105 13 110 40 12 59 14 244 3 284 -9 36 -8 51
6 88 11 32 14 53 7 69 -5 14 -7 309 -5 685 1 364 -1 678 -5 698 -5 20 -4 70 1
112 18 135 22 286 10 309 -24 45 -66 56 -221 59 -110 3 -153 0 -177 -11z"/>
<path d="M26012 8251 c-79 -6 -85 -8 -113 -39 l-30 -33 6 -157 c11 -351 13
-1111 3 -1327 -17 -367 -12 -577 18 -733 9 -44 60 -55 229 -50 82 3 157 8 165
12 41 18 43 35 46 449 2 220 6 412 9 427 13 60 28 65 230 65 l184 0 46 -45
c28 -28 53 -64 65 -99 12 -29 32 -73 45 -96 14 -23 25 -51 25 -63 0 -34 10
-51 47 -73 23 -15 43 -40 59 -73 12 -28 32 -64 43 -81 12 -16 21 -37 21 -46 0
-9 17 -43 38 -75 69 -106 101 -158 127 -206 34 -65 60 -79 163 -90 119 -13
368 -1 387 19 22 21 18 58 -9 90 -13 15 -37 55 -53 88 -47 95 -95 178 -119
207 -12 15 -28 44 -34 65 -7 21 -26 53 -43 70 -38 40 -65 87 -161 281 -72 144
-86 192 -55 192 5 0 34 21 64 48 113 96 177 164 196 210 11 26 29 57 40 68 27
29 64 238 64 364 -1 101 -22 210 -55 270 -10 19 -30 58 -43 85 -28 59 -121
149 -174 171 -21 8 -70 31 -109 50 -114 55 -204 62 -764 61 -261 -1 -513 -3
-558 -6z m1118 -472 c47 -16 96 -37 110 -48 24 -18 25 -23 25 -117 -1 -89 -4
-104 -29 -151 -40 -73 -60 -89 -161 -123 l-88 -31 -275 11 c-312 12 -333 17
-359 77 -19 46 -21 309 -3 343 20 37 86 59 180 61 47 0 108 4 135 8 28 4 124
5 215 3 150 -4 173 -7 250 -33z"/>
<path d="M20983 5040 c-219 -8 -246 -15 -259 -65 -9 -34 3 -72 25 -84 10 -6
46 -15 81 -20 34 -6 73 -17 86 -26 23 -15 24 -21 24 -128 1 -157 16 -341 32
-374 11 -23 21 -29 54 -31 29 -2 48 3 65 17 24 19 24 20 27 247 2 125 8 238
13 251 12 32 66 53 137 53 74 0 98 20 89 77 -15 87 -50 95 -374 83z"/>
<path d="M21449 5014 c-20 -24 -30 -240 -23 -467 6 -192 7 -199 31 -228 32
-38 79 -40 112 -5 19 20 25 42 33 116 10 100 21 138 42 146 19 7 65 -18 100
-55 43 -45 65 -40 138 29 93 89 99 85 103 -68 2 -120 13 -155 57 -173 43 -18
79 -2 102 45 18 36 19 64 19 340 -1 297 -1 300 -23 318 -30 24 -40 17 -163
-103 -56 -55 -107 -103 -113 -107 -5 -4 -20 -22 -33 -39 -29 -42 -45 -41 -84
4 -70 82 -256 263 -270 263 -8 0 -20 -7 -28 -16z"/>
<path d="M13722 4730 c-50 -21 -50 -2 -51 -1099 -2 -1032 1 -1176 25 -1208 21
-30 249 -39 874 -33 514 5 569 7 610 24 25 10 74 26 109 36 47 14 74 28 101
57 46 47 115 103 157 128 31 18 63 67 63 97 0 8 13 34 29 59 39 59 54 144 55
320 l1 146 -36 59 c-20 32 -40 70 -44 84 -4 14 -38 57 -75 95 -37 39 -73 81
-80 94 -19 37 -14 83 14 139 58 115 76 275 53 473 -15 125 -28 166 -70 226
-12 18 -44 71 -72 119 -49 85 -51 87 -125 122 -138 64 -136 64 -860 68 -390 2
-664 -1 -678 -6z m1191 -481 c68 -19 89 -29 125 -64 l42 -42 0 -85 c0 -75 -3
-87 -22 -105 -57 -53 -134 -102 -176 -113 -26 -6 -57 -16 -70 -21 -13 -5 -41
-9 -64 -9 -23 0 -69 -5 -102 -10 -45 -8 -114 -7 -258 3 -225 16 -224 15 -253
100 -15 45 -17 71 -10 180 10 172 -8 161 277 176 123 7 232 14 243 16 47 8
191 -6 268 -26z m-18 -918 c74 -5 124 -16 194 -41 105 -38 119 -52 141 -144
12 -50 11 -61 -15 -153 -37 -131 -48 -145 -148 -183 -124 -47 -165 -54 -270
-42 -59 7 -158 8 -272 3 -212 -10 -338 3 -366 37 -13 17 -17 56 -22 209 -10
295 -3 311 137 316 187 6 524 6 621 -2z"/>
<path d="M17060 4733 c-72 -12 -91 -33 -106 -116 -3 -20 -19 -55 -35 -77 -17
-23 -36 -69 -45 -108 -9 -37 -27 -82 -40 -100 -14 -18 -28 -49 -30 -70 -3 -20
-7 -52 -10 -69 -3 -18 -22 -53 -44 -77 -21 -25 -44 -62 -50 -83 -7 -21 -23
-58 -35 -83 -12 -25 -25 -74 -29 -110 -7 -64 -61 -199 -112 -281 -12 -20 -35
-76 -50 -125 -14 -48 -37 -104 -49 -124 -13 -19 -29 -55 -35 -80 -7 -24 -23
-66 -36 -92 -13 -26 -29 -71 -35 -100 -6 -29 -26 -78 -44 -108 -18 -30 -36
-71 -40 -90 -9 -41 -26 -86 -94 -240 -87 -196 -85 -198 179 -205 128 -4 204
-2 226 5 45 15 81 77 93 161 10 70 36 133 67 160 33 29 121 38 394 42 325 5
588 -6 627 -27 16 -8 52 -39 82 -69 50 -51 56 -62 80 -153 38 -140 29 -136
271 -123 136 7 199 15 209 24 19 19 17 62 -6 93 -11 15 -23 45 -27 67 -4 22
-23 74 -41 115 -19 42 -41 104 -49 138 -8 34 -25 82 -39 106 -14 25 -33 69
-43 98 -9 29 -27 69 -40 88 -12 19 -27 61 -33 92 -6 31 -21 74 -35 95 -14 21
-28 55 -31 75 -4 21 -22 62 -39 91 -41 68 -44 76 -61 166 -8 40 -25 92 -39
115 -13 22 -29 61 -36 86 -7 24 -23 57 -36 73 -22 26 -44 84 -44 118 0 8 -16
42 -36 74 -19 33 -42 89 -50 125 -9 36 -24 81 -36 100 -11 19 -28 67 -39 107
-20 80 -30 103 -54 123 -8 7 -22 36 -30 65 -29 97 -78 116 -294 114 -80 -1
-157 -4 -171 -6z m209 -745 c7 -18 29 -49 51 -69 28 -25 40 -46 45 -75 3 -21
19 -67 35 -100 16 -34 32 -79 35 -100 4 -22 21 -64 38 -94 31 -57 64 -162 73
-240 5 -37 2 -48 -15 -64 -18 -17 -41 -19 -268 -20 -136 -1 -258 2 -270 6 -12
4 -26 15 -31 25 -16 31 5 152 38 218 16 33 37 80 45 105 9 24 25 60 37 80 24
42 58 135 58 163 0 10 19 59 43 108 46 98 67 111 86 57z"/>
<path d="M19544 4729 c-90 -6 -134 -16 -229 -48 -64 -21 -127 -48 -138 -59
-12 -11 -46 -29 -74 -40 -29 -11 -68 -34 -85 -51 -18 -17 -68 -63 -110 -102
-42 -39 -89 -90 -105 -113 -15 -22 -42 -58 -60 -79 -18 -20 -33 -43 -33 -50 0
-7 -13 -29 -30 -49 -18 -22 -35 -60 -44 -97 -9 -39 -25 -74 -44 -95 -17 -19
-33 -52 -36 -73 -10 -59 1 -520 14 -596 14 -76 81 -251 109 -282 10 -11 25
-33 34 -50 8 -16 30 -46 49 -66 18 -19 51 -59 73 -89 86 -116 122 -147 193
-170 92 -30 117 -45 148 -87 40 -54 50 -61 107 -68 29 -4 88 -18 131 -31 155
-48 454 -55 578 -13 32 10 97 28 145 39 59 14 110 34 154 60 36 22 75 40 86
40 12 0 42 18 67 39 25 22 59 48 75 57 56 33 56 36 54 560 -1 319 -5 495 -13
522 -11 42 -50 80 -69 68 -5 -3 -145 -8 -311 -10 -335 -5 -338 -6 -366 -72
-12 -29 -13 -60 -6 -172 5 -76 14 -148 21 -159 12 -24 66 -43 121 -43 55 0
109 -19 121 -43 7 -12 14 -83 17 -162 5 -164 1 -175 -95 -221 -53 -26 -66 -28
-207 -31 -241 -4 -294 5 -436 78 -126 64 -163 98 -215 199 -10 19 -30 49 -45
66 -22 25 -30 49 -38 110 -21 148 -23 239 -9 388 l14 150 41 35 c22 20 59 71
82 114 51 94 60 103 111 117 22 6 59 25 83 42 40 27 60 33 224 56 176 26 182
26 249 9 37 -9 96 -21 131 -27 34 -6 99 -29 144 -50 105 -51 163 -54 229 -11
65 42 104 88 137 162 17 37 35 70 41 73 18 12 12 37 -16 72 -16 18 -38 46 -50
62 -16 21 -34 31 -63 36 -22 3 -66 20 -99 36 -32 17 -65 30 -72 30 -8 0 -50
18 -94 40 -73 36 -91 40 -200 50 -134 11 -228 11 -391 -1z"/>
</g>
</svg>
